<?xml version="1.0" encoding="UTF-8"?>
<svg width="22" height="22" version="1.1" viewBox="0 0 22 22" xml:space="preserve" xmlns="http://www.w3.org/2000/svg" xmlns:cc="http://creativecommons.org/ns#" xmlns:dc="http://purl.org/dc/elements/1.1/" xmlns:rdf="http://www.w3.org/1999/02/22-rdf-syntax-ns#"><metadata><rdf:RDF><cc:Work rdf:about=""><dc:format>image/svg+xml</dc:format><dc:type rdf:resource="http://purl.org/dc/dcmitype/StillImage"/><dc:title/></cc:Work></rdf:RDF></metadata><g transform="matrix(.046854 0 0 .046854 -.99469 -.99469)" stroke="#2b87df" stroke-opacity=".94118" stroke-width="21.541"><path d="m55 281h87v190c0 5 3.6 9 8.5 9h80c5 0 9.5-4.1 9.5-9v-190h131.5c2.4 0 4.6-1 6.3-2.7l85.5-84.3c1.7-1.7 2.7-4 2.7-6.5s-1-4.7-2.7-6.4l-85.5-83.4c-1.7-1.6-3.9-2.8-6.3-2.8h-131.5v-53.9c0-5-4.5-9-9.5-9h-80c-5 0-8.5 4.1-8.5 9v54h-87c-5 0-9 4.5-9 9.5v167.3c0 5 4 9.2 9 9.2zm167 181h-62v-181h62zm-62-412h62v45h-62zm-96 63h303.9l76.3 74.5-76.4 75.5h-303.8z" stroke="#2b87df" stroke-opacity=".94118" stroke-width="21.541"/></g></svg>
