<?xml version="1.0" encoding="UTF-8" standalone="no"?>
<svg
   xmlns:dc="http://purl.org/dc/elements/1.1/"
   xmlns:cc="http://creativecommons.org/ns#"
   xmlns:rdf="http://www.w3.org/1999/02/22-rdf-syntax-ns#"
   xmlns:svg="http://www.w3.org/2000/svg"
   xmlns="http://www.w3.org/2000/svg"
   xmlns:sodipodi="http://sodipodi.sourceforge.net/DTD/sodipodi-0.dtd"
   xmlns:inkscape="http://www.inkscape.org/namespaces/inkscape"
   version="1.1"
   x="0px"
   y="0px"
   viewBox="0 0 94 60"
   id="svg10"
   sodipodi:docname="email.svg"
   width="94"
   height="60"
   inkscape:version="1.0.2 (e86c870879, 2021-01-15)">
  <metadata
     id="metadata16">
    <rdf:RDF>
      <cc:Work
         rdf:about="">
        <dc:format>image/svg+xml</dc:format>
        <dc:type
           rdf:resource="http://purl.org/dc/dcmitype/StillImage" />
        <dc:title></dc:title>
      </cc:Work>
    </rdf:RDF>
  </metadata>
  <defs
     id="defs14" />
  <sodipodi:namedview
     pagecolor="#ffffff"
     bordercolor="#666666"
     borderopacity="1"
     objecttolerance="10"
     gridtolerance="10"
     guidetolerance="10"
     inkscape:pageopacity="0"
     inkscape:pageshadow="2"
     inkscape:window-width="2560"
     inkscape:window-height="1376"
     id="namedview12"
     showgrid="false"
     inkscape:zoom="2.016"
     inkscape:cx="60.200484"
     inkscape:cy="-83.30261"
     inkscape:window-x="0"
     inkscape:window-y="27"
     inkscape:window-maximized="1"
     inkscape:current-layer="svg10" />
  <g
     transform="translate(-3,-972.36218)"
     id="g4">
    <path
       style="color:#000000;text-indent:0;text-transform:none;direction:ltr;baseline-shift:baseline;enable-background:accumulate"
       d="m 11,973.36216 c -3.82615,0 -7,3.17385 -7,7 v 44.00004 c 0,3.8261 3.17385,7 7,7 h 78 c 3.8262,0 7,-3.1739 7,-7 v -44.00004 c 0,-3.82615 -3.1738,-7 -7,-7 z m 4.03125,6 H 84.9688 l -33.68755,28.71874 c -0.50265,0.4283 -2.05984,0.4283 -2.5625,0 z M 10,982.95591 34.03125,1003.4247 10,1022.0497 Z m 80,0 v 39.09379 l -24.03125,-18.625 z m -51.3125,24.43749 6.15625,5.25 c 3.01246,2.567 7.30005,2.567 10.3125,0 l 6.15625,-5.25 23.2187,17.9688 H 15.46875 Z"
       fill="#000000"
       fill-opacity="1"
       stroke="none"
       marker="none"
       visibility="visible"
       display="inline"
       overflow="visible"
       id="path2" />
  </g>
</svg>
