<?xml version="1.0" encoding="UTF-8"?>
<svg width="22" height="22" data-name="Layer 1" version="1.1" viewBox="0 0 22 22" xmlns="http://www.w3.org/2000/svg" xmlns:cc="http://creativecommons.org/ns#" xmlns:dc="http://purl.org/dc/elements/1.1/" xmlns:rdf="http://www.w3.org/1999/02/22-rdf-syntax-ns#">
 <metadata>
  <rdf:RDF>
   <cc:Work rdf:about="">
    <dc:format>image/svg+xml</dc:format>
    <dc:type rdf:resource="http://purl.org/dc/dcmitype/StillImage"/>
    <dc:title>shopping</dc:title>
   </cc:Work>
  </rdf:RDF>
 </metadata>
 <title>shopping</title>
 <g fill="#2b87df" stroke-width="0">
  <path d="m17.703 15.842c-0.21145 0.48076-0.35575 0.79893-0.38131 0.85504a0.28417 0.28417 0 0 1-0.51735 0c-0.02907-0.06384-0.21129-0.46561-0.47217-1.0622a41.824 41.824 0 0 0-4.2562-0.27672c-0.4615 0.77525-0.78436 1.2911-0.83558 1.3726a0.28419 0.28419 0 0 1-0.48109 0c-0.05121-0.08144-0.37409-0.59736-0.83558-1.3726a41.841 41.841 0 0 0-4.2562 0.27663c-0.2609 0.59662-0.44313 0.99844-0.4722 1.0623a0.28417 0.28417 0 0 1-0.51735 0c-0.02556-0.05611-0.16986-0.37428-0.38133-0.85504-1.3307 0.24515-2.0504 0.53239-2.1079 0.74217 0.12177 0.43411 3.17 1.2268 8.8111 1.2268 5.6208 0 8.6673-0.78695 8.8096-1.2316-0.06701-0.20937-0.786-0.49409-2.1065-0.73736z"/>
  <path d="m17.063 5.4947a2.7505 2.7505 0 0 0-2.7474 2.7474 5.3692 5.3692 0 0 0 0.26501 1.2938c0.03761 0.1276 0.07896 0.2609 0.123 0.39852q0.06061 0.18929 0.12811 0.38885c0.50459 1.4901 1.2818 3.3769 1.8934 4.7896q0.14059 0.32476 0.26684 0.61059c0.02354 0.05336 0.04875 0.11109 0.0714 0.16211 0.02015-0.04527 0.04182-0.09483 0.06238-0.14123q0.11501-0.25955 0.23716-0.54004c1.0603-2.4338 2.4475-5.8906 2.4475-6.9623a2.7505 2.7505 0 0 0-2.7474-2.7474zm0 4.5474a1.7974 1.7974 0 0 1-1.6189-1.0274 1.7745 1.7745 0 0 1-0.13838-0.39056 1.799 1.799 0 1 1 1.7573 1.418z"/>
  <path d="m5.4298 5.5415a2.7367 2.7367 0 0 0-3.2407 2.7006c0 1.0868 1.4627 4.6899 2.4491 6.962 0.08261 0.19031 0.1616 0.37083 0.23636 0.54014 0.02046 0.04628 0.04253 0.09689 0.06229 0.14139 0.02318-0.05206 0.04804-0.10887 0.07175-0.16239q0.12951-0.29247 0.2677-0.61059c0.64706-1.4895 1.403-3.3327 1.8935-4.7851 0.04494-0.13301 0.08796-0.26309 0.12808-0.38885 0.04385-0.13748 0.08537-0.27128 0.12278-0.39863a5.3674 5.3674 0 0 0 0.26318-1.298 2.7508 2.7508 0 0 0-1.6601-2.522 2.6609 2.6609 0 0 0-0.59389-0.17858zm1.041 1.7724a1.7991 1.7991 0 0 1-1.5343 2.7282 1.7979 1.7979 0 1 1 1.5343-2.7282z"/>
  <path d="m3.7048 8.2421a1.2316 1.2316 0 0 0 2.4632 0 1.2364 1.2364 0 0 0-1.2316-1.2316 1.233 1.233 0 0 0-1.2316 1.2316z"/>
  <circle cx="11" cy="5.2105" r="1.9895"/>
  <path d="m16.015 5.0986a5.0166 5.0166 0 0 0-10.031 0 3.3197 3.3197 0 0 1 2.268 3.1434 7.9719 7.9719 0 0 1-0.47098 2.0392c0.82685 1.6609 1.7735 3.3272 2.468 4.506 0.11988 0.20345 0.23198 0.39211 0.33477 0.5638 0.16526 0.276 0.30746 0.51035 0.41561 0.68708 0.10815-0.17673 0.25035-0.41112 0.41559-0.6871 0.10279-0.17171 0.21486-0.36033 0.33473-0.56377 0.69452-1.1789 1.6412-2.8452 2.468-4.5061a7.971 7.971 0 0 1-0.47094-2.039 3.3197 3.3197 0 0 1 2.268-3.1434zm-5.0154 2.6698a2.5579 2.5579 0 1 1 2.5579-2.5579 2.5607 2.5607 0 0 1-2.5579 2.5579z"/>
  <path d="m17.063 7.0105a1.2316 1.2316 0 1 0 1.2316 1.2316 1.2302 1.2302 0 0 0-1.2316-1.2316z"/>
 </g>
</svg>
