<?xml version="1.0" encoding="UTF-8" standalone="no"?>
<svg
   xmlns:dc="http://purl.org/dc/elements/1.1/"
   xmlns:cc="http://creativecommons.org/ns#"
   xmlns:rdf="http://www.w3.org/1999/02/22-rdf-syntax-ns#"
   xmlns:svg="http://www.w3.org/2000/svg"
   xmlns="http://www.w3.org/2000/svg"
   xmlns:sodipodi="http://sodipodi.sourceforge.net/DTD/sodipodi-0.dtd"
   xmlns:inkscape="http://www.inkscape.org/namespaces/inkscape"
   version="1.1"
   x="0px"
   y="0px"
   viewBox="0 0 71 92"
   enable-background="new 0 0 100 100"
   xml:space="preserve"
   id="svg16"
   sodipodi:docname="pin.svg"
   width="71"
   height="92"
   inkscape:version="1.0.2 (e86c870879, 2021-01-15)"><metadata
     id="metadata22"><rdf:RDF><cc:Work
         rdf:about=""><dc:format>image/svg+xml</dc:format><dc:type
           rdf:resource="http://purl.org/dc/dcmitype/StillImage" /><dc:title></dc:title></cc:Work></rdf:RDF></metadata><defs
     id="defs20" /><sodipodi:namedview
     pagecolor="#ffffff"
     bordercolor="#666666"
     borderopacity="1"
     objecttolerance="10"
     gridtolerance="10"
     guidetolerance="10"
     inkscape:pageopacity="0"
     inkscape:pageshadow="2"
     inkscape:window-width="2560"
     inkscape:window-height="1376"
     id="namedview18"
     showgrid="false"
     inkscape:zoom="8.064"
     inkscape:cx="50"
     inkscape:cy="62.5"
     inkscape:window-x="0"
     inkscape:window-y="27"
     inkscape:window-maximized="1"
     inkscape:current-layer="svg16" /><g
     id="g10"
     transform="translate(-14.500313,-4)"><path
       fill="none"
       d="m 49.18,29.01 c -5.408,0 -9.808,4.401 -9.808,9.811 0,5.411 4.4,9.813 9.808,9.813 5.409,0 9.81,-4.402 9.81,-9.813 0,-5.411 -4.401,-9.811 -9.81,-9.811 z"
       id="path2" /><path
       fill="none"
       d="m 51.977,11.495 h -4.005 c -8.013,0.434 -16.1,5.156 -21.125,12.338 -4.592,6.566 -6.022,14.255 -3.928,21.107 2.524,7.172 6.362,14.319 12.075,22.487 1.584,2.267 3.319,4.626 5.463,7.425 1.443,1.889 3.001,3.881 5.049,6.46 l 1.962,2.482 c 0.852,1.076 1.703,2.152 2.548,3.227 1.326,-1.721 2.668,-3.433 3.98,-5.108 l 1.093,-1.394 c 1.5,-1.914 3.004,-3.831 4.484,-5.765 2.183,-2.85 3.911,-5.188 5.439,-7.363 6.016,-8.566 9.951,-16 12.373,-23.381 C 79.081,37.127 77.373,29.556 72.691,23.217 67.585,16.307 59.847,11.929 51.977,11.495 Z M 49.18,55.128 c -8.989,0 -16.303,-7.316 -16.303,-16.308 0,-8.991 7.314,-16.306 16.303,-16.306 8.99,0 16.305,7.315 16.305,16.306 0,8.993 -7.315,16.308 -16.305,16.308 z"
       id="path4" /><path
       d="M 77.915,19.36 C 71.65,10.879 62.049,5.512 52.231,5.005 52.176,5.002 52.12,5 52.064,5 h -4.177 c -0.054,0 -0.11,0.002 -0.164,0.005 -10.146,0.513 -19.939,6.16 -26.197,15.106 -5.763,8.237 -7.51,18.007 -4.795,26.803 0.013,0.04 0.025,0.079 0.039,0.118 2.726,7.765 6.825,15.429 12.901,24.116 1.638,2.345 3.427,4.777 5.628,7.652 1.468,1.92 3.047,3.941 5.114,6.542 l 1.962,2.483 c 1.559,1.97 3.115,3.937 4.641,5.913 C 47.63,94.533 48.58,95 49.586,95 h 0.909 c 1.021,0 1.983,-0.48 2.596,-1.296 1.953,-2.599 4.019,-5.234 6.016,-7.783 L 60.2,84.527 c 1.516,-1.934 3.034,-3.87 4.53,-5.823 2.237,-2.919 4.015,-5.327 5.597,-7.576 6.428,-9.153 10.644,-17.163 13.268,-25.21 0.024,-0.071 0.043,-0.141 0.063,-0.214 C 85.873,36.902 83.78,27.3 77.915,19.36 Z m -0.53,24.652 c -2.422,7.381 -6.356,14.815 -12.373,23.381 -1.529,2.175 -3.256,4.513 -5.439,7.363 -1.481,1.934 -2.984,3.851 -4.484,5.765 l -1.093,1.394 c -1.313,1.674 -2.655,3.387 -3.98,5.108 -0.845,-1.076 -1.696,-2.151 -2.548,-3.227 L 45.506,81.314 C 43.458,78.735 41.901,76.744 40.457,74.854 38.313,72.055 36.578,69.696 34.994,67.429 29.281,59.261 25.444,52.113 22.919,44.942 20.825,38.089 22.255,30.4 26.847,23.835 31.871,16.652 39.959,11.931 47.972,11.497 h 4.005 c 7.87,0.434 15.608,4.812 20.714,11.724 4.682,6.337 6.39,13.908 4.694,20.791 z"
       id="path6" /><path
       d="m 49.18,22.515 c -8.989,0 -16.303,7.315 -16.303,16.306 0,8.992 7.314,16.308 16.303,16.308 8.99,0 16.305,-7.316 16.305,-16.308 0,-8.991 -7.315,-16.306 -16.305,-16.306 z m 0,26.119 c -5.408,0 -9.808,-4.402 -9.808,-9.813 0,-5.41 4.4,-9.811 9.808,-9.811 5.409,0 9.81,4.401 9.81,9.811 0,5.411 -4.401,9.813 -9.81,9.813 z"
       id="path8" /></g></svg>
