<?xml version="1.0" encoding="UTF-8" standalone="no"?>
<svg
   xmlns:dc="http://purl.org/dc/elements/1.1/"
   xmlns:cc="http://creativecommons.org/ns#"
   xmlns:rdf="http://www.w3.org/1999/02/22-rdf-syntax-ns#"
   xmlns:svg="http://www.w3.org/2000/svg"
   xmlns="http://www.w3.org/2000/svg"
   xmlns:sodipodi="http://sodipodi.sourceforge.net/DTD/sodipodi-0.dtd"
   xmlns:inkscape="http://www.inkscape.org/namespaces/inkscape"
   version="1.1"
   x="0px"
   y="0px"
   viewBox="0 0 58 50"
   xml:space="preserve"
   id="svg14"
   sodipodi:docname="tel.svg"
   width="58"
   height="50"
   inkscape:version="1.0.2 (e86c870879, 2021-01-15)"><metadata
     id="metadata20"><rdf:RDF><cc:Work
         rdf:about=""><dc:format>image/svg+xml</dc:format><dc:type
           rdf:resource="http://purl.org/dc/dcmitype/StillImage" /><dc:title>Artboard 5</dc:title></cc:Work></rdf:RDF></metadata><defs
     id="defs18" /><sodipodi:namedview
     pagecolor="#ffffff"
     bordercolor="#666666"
     borderopacity="1"
     objecttolerance="10"
     gridtolerance="10"
     guidetolerance="10"
     inkscape:pageopacity="0"
     inkscape:pageshadow="2"
     inkscape:window-width="2560"
     inkscape:window-height="1376"
     id="namedview16"
     showgrid="false"
     inkscape:zoom="12.6"
     inkscape:cx="32"
     inkscape:cy="40"
     inkscape:window-x="0"
     inkscape:window-y="27"
     inkscape:window-maximized="1"
     inkscape:current-layer="svg14" /><title
     id="title2">Artboard 5</title><path
     d="m 2,19 h 14 v 3 H 15.7 C 8.7,22 3,26.5 3,32 v 16 c 0,0.6 0.4,1 1,1 h 50 c 0.6,0 1,-0.4 1,-1 V 32 C 55,22.8 49,22 42.3,22 H 42 v -3 h 14 c 0.6,0 1,-0.4 1,-1 V 12 C 57.1,6 52.3,1.1 46.4,1 H 11.6 C 5.7,1.1 0.9,6 1,12 v 6 c 0,0.6 0.4,1 1,1 z m 1,-2 v -2 h 13 v 2 z m 39.3,7 C 48.7,24 53,24.5 53,32 V 47 H 5 V 32 C 5,27.6 9.8,24 15.7,24 H 17 c 0.6,0 1,-0.4 1,-1 V 12 c 0,-0.5 0.4,-0.9 0.9,-1 h 20.3 c 0.5,0.1 0.9,0.5 0.8,1 v 11 c 0,0.6 0.4,1 1,1 z M 55,17 H 42 V 15 H 55 Z M 11.6,3 h 34.7 c 4.9,0.1 8.7,4.1 8.6,9 v 1 H 42 V 12 C 42,10.4 40.8,9 39.2,9 H 18.9 C 17.3,9 16,10.4 16,12 v 1 H 3 V 12 C 2.9,7.1 6.8,3.1 11.6,3 Z"
     id="path4" /><path
     d="m 29,19 c -5,0 -9,4 -9,9 0,5 4,9 9,9 5,0 9,-4 9,-9 0,-5 -4,-9 -9,-9 z m 0,16 c -3.9,0 -7,-3.1 -7,-7 0,-3.9 3.1,-7 7,-7 3.9,0 7,3.1 7,7 0,3.9 -3.1,7 -7,7 z"
     id="path6" /><path
     d="m 29,24 c -2.2,0 -4,1.8 -4,4 0,2.2 1.8,4 4,4 2.2,0 4,-1.8 4,-4 0,-2.2 -1.8,-4 -4,-4 z m 0,6 c -1.1,0 -2,-0.9 -2,-2 0,-1.1 0.9,-2 2,-2 1.1,0 2,0.9 2,2 0,1.1 -0.9,2 -2,2 z"
     id="path8" /></svg>
