<?xml version="1.0" encoding="UTF-8"?>
<svg width="22" height="22" clip-rule="evenodd" fill-rule="evenodd" stroke-linejoin="round" stroke-miterlimit="2" version="1.1" viewBox="0 0 22 22" xml:space="preserve" xmlns="http://www.w3.org/2000/svg" xmlns:cc="http://creativecommons.org/ns#" xmlns:dc="http://purl.org/dc/elements/1.1/" xmlns:rdf="http://www.w3.org/1999/02/22-rdf-syntax-ns#"><metadata><rdf:RDF><cc:Work rdf:about=""><dc:format>image/svg+xml</dc:format><dc:type rdf:resource="http://purl.org/dc/dcmitype/StillImage"/><dc:title/></cc:Work></rdf:RDF></metadata><g transform="matrix(.6937 0 0 .6937 -199.87 -157.47)" fill="#2b87df"><g fill="#2b87df"><path d="m303.97 227c7.161 0 12.974 5.814 12.974 12.974 0 7.161-5.813 12.974-12.974 12.974-7.16 0-12.974-5.813-12.974-12.974 0-7.16 5.814-12.974 12.974-12.974zm-0.974 4.997-0.026 8.026c-1e-3 0.267 0.106 0.524 0.296 0.713l6.026 5.974c0.392 0.389 1.026 0.386 1.414-6e-3 0.389-0.392 0.386-1.026-6e-3 -1.414l-5.729-5.68 0.025-7.607c2e-3 -0.552-0.445-1.001-0.997-1.003s-1.001 0.445-1.003 0.997z" fill="#2b87df"/></g></g></svg>
